<svg id="svg" version="1.1" xmlns="http://www.w3.org/2000/svg" xmlns:xlink="http://www.w3.org/1999/xlink" width="400" height="400" viewBox="0, 0, 400,400"><g id="svgg"><path id="path0" d="M268.800 15.744 L 268.800 31.488 264.164 31.693 C 256.257 32.042,256.727 30.583,256.505 55.452 L 256.330 75.103 255.454 75.503 C 254.028 76.153,251.992 78.028,250.989 79.617 C 250.148 80.950,249.829 81.129,247.867 81.374 C 243.905 81.869,244.013 81.002,243.642 115.300 L 243.600 119.200 241.055 119.200 C 231.908 119.200,231.817 119.393,231.317 139.800 C 231.123 147.680,230.930 151.068,230.786 149.094 C 230.412 143.972,230.662 144.041,212.520 144.017 C 193.476 143.992,194.460 143.567,194.046 152.000 L 193.800 157.000 190.817 157.297 C 183.413 158.036,181.754 161.270,181.302 175.844 L 181.140 181.089 175.734 181.295 C 168.698 181.564,169.038 181.211,168.870 188.413 L 168.740 194.000 163.446 194.000 C 156.290 194.000,156.636 193.664,156.462 200.767 L 156.323 206.400 151.862 206.423 C 144.238 206.461,144.104 206.593,144.040 214.100 C 144.001 218.689,143.979 218.800,143.100 218.820 C 132.271 219.065,131.638 219.538,131.603 227.400 C 131.584 231.921,131.661 231.829,127.649 232.131 C 120.226 232.689,119.421 234.328,118.925 249.900 L 118.718 256.400 113.187 256.400 C 106.027 256.400,106.400 256.027,106.400 263.190 L 106.400 268.723 100.861 268.862 C 93.615 269.043,94.000 268.665,94.000 275.587 L 94.000 281.076 88.646 281.333 C 81.061 281.697,81.697 281.061,81.333 288.646 L 81.076 294.000 76.598 294.000 C 69.191 294.000,69.242 293.953,68.912 301.242 L 68.684 306.284 64.217 306.523 C 57.024 306.909,56.909 307.024,56.523 314.222 L 56.283 318.694 51.131 319.072 C 43.581 319.625,44.042 318.304,44.017 339.471 C 43.996 357.935,43.111 355.979,51.529 356.062 L 57.800 356.125 52.600 356.415 C 46.465 356.757,45.335 357.005,44.713 358.146 C 44.056 359.349,43.475 380.945,43.815 391.500 L 44.089 400.000 181.258 400.000 L 318.428 400.000 318.287 385.100 C 318.049 359.875,317.725 359.081,306.936 357.233 C 302.144 356.412,301.015 356.399,231.136 356.327 C 192.121 356.287,164.070 356.138,168.800 355.996 C 180.409 355.648,180.419 355.642,180.778 349.672 L 181.010 345.800 181.300 350.400 C 181.692 356.600,179.501 356.001,201.776 355.993 C 231.027 355.982,230.206 356.217,230.687 347.727 L 230.918 343.653 242.645 343.527 C 257.010 343.372,255.747 344.027,255.938 336.631 L 256.076 331.290 267.138 331.089 C 281.736 330.824,280.645 331.409,281.064 323.613 L 281.317 318.908 286.926 318.706 C 293.948 318.453,293.600 318.814,293.600 311.783 L 293.600 306.520 297.261 306.260 C 299.275 306.117,301.888 306.000,303.067 306.000 C 304.246 306.000,305.523 305.835,305.905 305.633 C 306.287 305.431,308.080 304.997,309.889 304.668 C 315.028 303.733,316.485 302.192,317.288 296.844 C 317.506 295.390,317.883 293.840,318.126 293.400 C 318.369 292.960,318.640 290.048,318.728 286.929 L 318.887 281.259 324.425 281.129 C 331.380 280.967,330.967 281.382,331.130 274.381 L 331.260 268.800 332.330 268.775 C 336.296 268.681,342.081 268.079,342.437 267.723 C 343.333 266.827,343.581 263.863,343.590 253.961 L 343.600 243.722 348.175 243.461 C 353.515 243.156,354.647 242.812,355.279 241.307 C 356.710 237.902,356.655 111.629,355.222 108.720 C 354.512 107.280,353.229 106.895,348.032 106.567 L 343.660 106.290 343.515 89.245 C 343.334 67.883,343.982 69.520,335.500 68.991 L 331.200 68.723 331.176 58.862 C 331.139 43.449,331.516 44.248,324.181 44.069 L 318.800 43.938 318.772 35.269 C 318.717 18.572,318.986 19.196,311.700 18.900 L 306.518 18.690 306.261 13.645 C 306.119 10.870,306.003 6.665,306.002 4.300 L 306.000 0.000 287.400 0.000 L 268.800 0.000 268.800 15.744 M206.299 251.500 C 206.230 254.305,206.174 252.010,206.174 246.400 C 206.174 240.790,206.230 238.495,206.299 241.300 C 206.368 244.105,206.368 248.695,206.299 251.500 M193.899 281.700 C 193.828 284.175,193.771 282.150,193.771 277.200 C 193.771 272.250,193.828 270.225,193.899 272.700 C 193.969 275.175,193.969 279.225,193.899 281.700 M193.600 304.353 L 193.600 306.305 188.400 306.467 C 181.945 306.669,181.893 306.705,181.568 311.313 L 181.335 314.600 181.268 310.300 L 181.200 306.000 185.774 306.000 C 191.711 306.000,193.179 305.466,193.194 303.300 C 193.197 302.805,193.290 302.400,193.400 302.400 C 193.510 302.400,193.600 303.279,193.600 304.353 " stroke="none" fill="#04244c" fill-rule="evenodd"></path><path id="path1" d="" stroke="none" fill="#08244c" fill-rule="evenodd"></path><path id="path2" d="" stroke="none" fill="#08244c" fill-rule="evenodd"></path><path id="path3" d="" stroke="none" fill="#08244c" fill-rule="evenodd"></path><path id="path4" d="" stroke="none" fill="#08244c" fill-rule="evenodd"></path></g></svg>